<svg width="203" height="30" viewBox="0 0 203 30" fill="none" xmlns="http://www.w3.org/2000/svg">
<path d="M25.3896 2.34222C25.6671 2.34222 25.8834 2.44424 26.0466 2.64418C26.2098 2.84413 26.2669 3.08488 26.218 3.35827L24.9734 9.08325C24.9245 9.36072 24.7776 9.59739 24.5409 9.79734C24.3001 9.99728 24.0431 10.0993 23.7697 10.0993H13.0052L12.4013 12.8863H22.4149C22.6924 12.8863 22.9046 12.9883 23.0556 13.1883C23.2066 13.3882 23.2555 13.6289 23.2066 13.9023L22.0028 19.5865C21.9538 19.864 21.8029 20.1007 21.5499 20.3006C21.2969 20.5005 21.0357 20.6026 20.7582 20.6026H10.7446L9.23893 27.6782C9.18996 27.9557 9.04306 28.1923 8.80639 28.3923C8.56972 28.5922 8.31265 28.6942 8.03518 28.6942H0.845296C0.56782 28.6942 0.347472 28.5922 0.188332 28.3923C0.0251109 28.1923 -0.0320164 27.9516 0.0169499 27.6782L5.21145 3.35827C5.26042 3.0808 5.40732 2.84413 5.64399 2.64418C5.88066 2.44424 6.13773 2.34222 6.41521 2.34222H25.3896Z" fill="#FCFCFC"/>
<path d="M52.8312 2.34222C53.1086 2.34222 53.3249 2.44424 53.4881 2.64418C53.6513 2.84413 53.7085 3.08488 53.6595 3.35827L50.3828 18.7541C50.0074 20.5373 49.4525 22.0715 48.7262 23.3651C47.9998 24.6586 47.0776 25.7318 45.9596 26.5846C44.8415 27.4374 43.5235 28.0658 42.0055 28.4657C40.4876 28.8656 38.737 29.0696 36.7539 29.0696C35.1217 29.0696 33.5752 28.8697 32.1062 28.4657C30.6372 28.0658 29.3886 27.4374 28.3603 26.5846C27.332 25.7318 26.5852 24.6586 26.1201 23.3651C25.6549 22.0715 25.61 20.5373 25.9895 18.7541L29.2661 3.35827C29.3151 3.0808 29.462 2.84413 29.6987 2.64418C29.9353 2.44424 30.1924 2.34222 30.4699 2.34222H37.8475C38.125 2.34222 38.3412 2.44424 38.5044 2.64418C38.6677 2.84413 38.7248 3.08488 38.6758 3.35827L35.3992 18.6031C35.0238 20.5373 35.7501 21.5003 37.5822 21.5003C39.4634 21.5003 40.5937 20.5332 40.9691 18.6031L44.2457 3.35827C44.2947 3.0808 44.4416 2.84413 44.6783 2.64418C44.9149 2.44424 45.172 2.34222 45.4495 2.34222H52.8312Z" fill="#FCFCFC"/>
<path d="M79.4035 2.34222C79.6809 2.34222 79.8972 2.44424 80.0604 2.64418C80.2237 2.84413 80.2808 3.08488 80.2318 3.35827L78.9138 9.41785C78.8648 9.69532 78.7179 9.93199 78.4813 10.1319C78.2446 10.3319 77.9875 10.4339 77.7101 10.4339H71.4628L67.774 27.6741C67.725 27.9516 67.5781 28.1882 67.3414 28.3882C67.1007 28.5881 66.8436 28.6902 66.5702 28.6902H59.0417C58.7642 28.6902 58.5479 28.5881 58.3847 28.3882C58.2215 28.1882 58.1644 27.9475 58.2133 27.6741L61.9021 10.4339H55.6548C55.3774 10.4339 55.1611 10.3319 54.9979 10.1319C54.8347 9.93199 54.7775 9.69124 54.8265 9.41785L56.1445 3.35827C56.1935 3.0808 56.3404 2.84413 56.577 2.64418C56.8137 2.44424 57.0708 2.34222 57.3482 2.34222H79.4035Z" fill="#FCFCFC"/>
<path d="M118.169 28.6942C117.892 28.6942 117.671 28.5922 117.512 28.3923C117.349 28.1923 117.292 27.9516 117.341 27.6782L122.535 3.36236C122.584 3.08489 122.731 2.84822 122.968 2.64827C123.205 2.44833 123.462 2.34631 123.739 2.34631H135.483C137.189 2.34631 138.694 2.50953 140 2.83598C141.306 3.16242 142.371 3.66024 143.199 4.32129C144.027 4.98641 144.603 5.81476 144.929 6.80632C145.256 7.79789 145.28 8.94452 145.003 10.2503C144.876 10.8542 144.656 11.4132 144.346 11.9233C144.032 12.4374 143.681 12.8904 143.293 13.278C142.905 13.6657 142.501 14.0044 142.089 14.2941C141.677 14.5838 141.306 14.8041 140.979 14.951C141.857 15.3509 142.546 16.0487 143.048 17.0403C143.55 18.0318 143.664 19.154 143.387 20.4108C142.783 23.2467 141.555 25.336 139.698 26.6785C137.841 28.021 135.205 28.6942 131.794 28.6942H118.169ZM127.918 22.2185H131.419C132.047 22.2185 132.537 22.0185 132.888 21.6145C133.239 21.2146 133.451 20.7984 133.528 20.3741C133.655 19.9211 133.61 19.5008 133.398 19.1132C133.186 18.7255 132.79 18.5297 132.21 18.5297H128.709L127.918 22.2185ZM135.107 10.5482C135.181 10.1483 135.144 9.75654 134.993 9.38113C134.842 9.00572 134.491 8.81802 133.94 8.81802H130.778L130.027 12.2416H133.19C133.741 12.2416 134.173 12.058 134.487 11.6948C134.801 11.3357 135.005 10.9521 135.107 10.5482Z" fill="#FCFCFC"/>
<path d="M173.428 2.34222C173.705 2.34222 173.921 2.44424 174.085 2.64418C174.248 2.84413 174.305 3.08488 174.256 3.35827L170.979 18.7541C170.604 20.5373 170.049 22.0715 169.323 23.3651C168.596 24.6586 167.674 25.7318 166.556 26.5846C165.438 27.4374 164.12 28.0658 162.602 28.4657C161.084 28.8656 159.334 29.0696 157.35 29.0696C155.718 29.0696 154.172 28.8697 152.703 28.4657C151.234 28.0658 149.985 27.4374 148.957 26.5846C147.928 25.7318 147.182 24.6586 146.717 23.3651C146.251 22.0715 146.207 20.5373 146.586 18.7541L149.863 3.35827C149.912 3.0808 150.059 2.84413 150.295 2.64418C150.532 2.44424 150.789 2.34222 151.066 2.34222H158.444C158.721 2.34222 158.938 2.44424 159.101 2.64418C159.264 2.84413 159.321 3.08488 159.272 3.35827L155.996 18.6031C155.62 20.5373 156.347 21.5003 158.179 21.5003C160.06 21.5003 161.19 20.5332 161.566 18.6031L164.842 3.35827C164.891 3.0808 165.038 2.84413 165.275 2.64418C165.511 2.44424 165.769 2.34222 166.046 2.34222H173.428Z" fill="#FCFCFC"/>
<path d="M180.389 28.6942C180.112 28.6942 179.891 28.5922 179.732 28.3923C179.569 28.1923 179.512 27.9516 179.561 27.6782L181.14 20.2639L176.247 3.50925C176.145 3.2073 176.198 2.93798 176.398 2.70131C176.598 2.46464 176.876 2.34222 177.227 2.34222H183.927C184.429 2.34222 184.776 2.46872 184.963 2.71763C185.151 2.97062 185.269 3.15833 185.322 3.28074L187.469 10.846L192.851 3.28074C192.924 3.15425 193.116 2.96654 193.414 2.71763C193.716 2.46872 194.116 2.34222 194.618 2.34222H202.073C202.424 2.34222 202.644 2.48096 202.73 2.75436C202.816 3.03183 202.775 3.28074 202.599 3.50517L190.554 20.2557L188.974 27.67C188.925 27.9475 188.779 28.1842 188.542 28.3841C188.305 28.5841 188.048 28.6861 187.771 28.6861H180.389V28.6942Z" fill="#FCFCFC"/>
<path d="M98.0172 25.842C107.388 25.842 114.984 22.1187 114.984 17.5259C114.984 12.933 107.388 9.20975 98.0172 9.20975C88.6467 9.20975 81.0504 12.933 81.0504 17.5259C81.0504 22.1187 88.6467 25.842 98.0172 25.842Z" fill="#F5F651"/>
<path d="M81.0504 21.6839V17.5258C81.0504 22.1205 88.6483 25.842 98.0172 25.842C107.386 25.842 114.984 22.1164 114.984 17.5258V21.6839C114.984 26.2786 107.386 30 98.0172 30C88.6483 30 81.0504 26.2786 81.0504 21.6839Z" fill="url(#paint0_linear)"/>
<path d="M100.009 16.6322C109.379 16.6322 116.975 12.909 116.975 8.3161C116.975 3.72325 109.379 0 100.009 0C90.638 0 83.0417 3.72325 83.0417 8.3161C83.0417 12.909 90.638 16.6322 100.009 16.6322Z" fill="#F5F651"/>
<path d="M83.0417 12.4742V8.3161C83.0417 12.9108 90.6396 16.6322 100.009 16.6322C109.377 16.6322 116.975 12.9067 116.975 8.3161V12.4742C116.975 17.0688 109.377 20.7903 100.009 20.7903C90.6396 20.7903 83.0417 17.0688 83.0417 12.4742Z" fill="url(#paint1_linear)"/>
<defs>
<linearGradient id="paint0_linear" x1="81" y1="18" x2="115.5" y2="18" gradientUnits="userSpaceOnUse">
<stop stop-color="#BC9C00"/>
<stop offset="0.505208" stop-color="#FFD818"/>
<stop offset="1" stop-color="#BD9D00"/>
</linearGradient>
<linearGradient id="paint1_linear" x1="82.5" y1="9" x2="117" y2="9" gradientUnits="userSpaceOnUse">
<stop stop-color="#BD9D00"/>
<stop offset="0.517527" stop-color="#FFD717"/>
<stop offset="1" stop-color="#BB9B00"/>
</linearGradient>
</defs>
</svg>
