<svg width="205" height="73" viewBox="0 0 205 73" fill="none" xmlns="http://www.w3.org/2000/svg">
<path fill-rule="evenodd" clip-rule="evenodd" d="M21.2191 23.122C21.2191 21.9395 21.0779 20.9909 20.7959 20.2766C20.514 19.5622 20.1401 19.0141 19.6742 18.632C19.2086 18.2501 18.6812 17.9977 18.0931 17.8746C17.5048 17.7512 16.9038 17.6896 16.2909 17.6896C15.629 17.6896 14.8505 17.7392 13.9559 17.8377C13.0611 17.9362 12.074 18.1578 10.9955 18.5028V33.8759H7.31787V16.1375C7.90637 15.9159 8.56213 15.6819 9.2855 15.4357C10.0087 15.1891 10.7686 14.9611 11.5656 14.7518C12.3622 14.5425 13.1714 14.3701 13.9926 14.2344C14.8138 14.0991 15.6046 14.0313 16.3645 14.0313C17.1982 14.0313 18.1115 14.1114 19.1045 14.2717C20.0973 14.4317 21.0228 14.8134 21.881 15.417C22.7389 16.0205 23.456 16.9322 24.0322 18.1516C24.6082 19.3711 24.8964 21.0282 24.8964 23.122V33.8759H21.2191V23.122ZM45.9688 20.5351C45.993 21.496 45.8705 22.3152 45.6009 22.9927C45.3311 23.6702 44.9697 24.2432 44.5161 24.711C44.0625 25.1792 43.5353 25.5428 42.9347 25.8013C42.334 26.06 41.7334 26.2633 41.1328 26.411C40.5322 26.5587 39.9435 26.6514 39.3677 26.6883C38.7913 26.7251 38.295 26.7437 37.8779 26.7437C36.873 26.7437 35.8616 26.6141 34.8441 26.3556C33.8266 26.0971 32.9258 25.7951 32.1412 25.4501C32.2392 26.6821 32.4906 27.6492 32.8949 28.3512C33.2995 29.0536 33.7593 29.5768 34.274 29.9218C34.789 30.2668 35.3223 30.4885 35.8739 30.5869C36.4255 30.6854 36.8974 30.7346 37.2898 30.7346C38.8099 30.7346 40.1889 30.6854 41.4268 30.5869C42.6649 30.4885 43.5537 30.4145 44.093 30.3653L44.4239 33.5801C43.7868 33.7525 43.0757 33.8883 42.2912 33.9867C41.6293 34.1099 40.8631 34.2084 39.9925 34.2825C39.1223 34.3561 38.2212 34.3933 37.2898 34.3933C37.0444 34.3933 36.6525 34.381 36.1128 34.3561C35.5734 34.3317 34.973 34.2271 34.3109 34.0421C33.649 33.8574 32.9687 33.562 32.2701 33.1554C31.5711 32.7488 30.9338 32.1699 30.3576 31.4183C29.7814 30.6671 29.3095 29.7062 28.9419 28.5359C28.574 27.3657 28.39 25.9308 28.39 24.2307C28.39 22.6295 28.574 21.2682 28.9419 20.1472C29.3095 19.0262 29.7814 18.0839 30.3576 17.3203C30.9338 16.5567 31.5711 15.9589 32.2701 15.5278C32.9687 15.0969 33.649 14.7704 34.3109 14.5487C34.973 14.3271 35.5734 14.1852 36.1128 14.1236C36.6525 14.062 37.0444 14.0313 37.2898 14.0313C37.9763 13.9821 38.8099 14.0313 39.7904 14.179C40.771 14.3271 41.7087 14.641 42.6036 15.1212C43.4986 15.6019 44.2708 16.2794 44.9204 17.154C45.5703 18.0285 45.9195 19.1556 45.9688 20.5351ZM37.2898 17.6896C36.9464 17.6896 36.5297 17.745 36.0395 17.8559C35.5489 17.9669 35.0585 18.1827 34.5684 18.5028C34.0781 18.8231 33.6244 19.2726 33.2077 19.8518C32.7908 20.4305 32.4845 21.1882 32.2882 22.1244C32.8275 22.3461 33.3852 22.5185 33.9616 22.6419C34.5378 22.7647 35.0833 22.8573 35.5982 22.9189C36.1128 22.9803 36.5725 23.0236 36.9772 23.0481C37.3814 23.0728 37.6819 23.0853 37.8779 23.0853C39.0549 23.0853 39.9435 22.9682 40.5441 22.7342C41.1451 22.5 41.5741 22.2353 41.8314 21.9395C42.0891 21.6437 42.2299 21.3608 42.2545 21.0894C42.2789 20.8185 42.2912 20.6339 42.2912 20.5351C42.2912 20.2889 42.2113 19.9995 42.052 19.6668C41.8927 19.3344 41.6231 19.0202 41.2431 18.7247C40.8631 18.4289 40.3543 18.1765 39.7168 17.9669C39.0795 17.7574 38.2702 17.6653 37.2898 17.6896ZM56.8173 30.6978C57.9943 30.6978 58.9932 30.5562 59.8146 30.273C60.6357 29.9896 61.0955 29.4414 61.1935 28.6282C61.2425 28.234 61.1751 27.8953 60.9914 27.6119C60.8073 27.3287 60.5439 27.0763 60.2006 26.8545C59.8574 26.6328 59.4528 26.4417 58.987 26.2817C58.5211 26.1216 58.0308 25.9801 57.5159 25.8567L56.0818 25.4873C55.1501 25.2161 54.2677 24.9145 53.434 24.5819C52.6005 24.2494 51.8771 23.8428 51.2642 23.3624C50.6513 22.8819 50.1733 22.303 49.8301 21.6255C49.4868 20.9479 49.3275 20.141 49.3521 19.2048C49.3765 18.1947 49.6155 17.3571 50.0692 16.6918C50.5224 16.0267 51.0988 15.4973 51.7974 15.103C52.4962 14.7088 53.2747 14.4317 54.1326 14.2717C54.9909 14.1114 55.8487 14.0313 56.707 14.0313C57.6387 14.0313 58.5459 14.0744 59.4284 14.1607C60.311 14.2468 61.0832 14.3394 61.7451 14.4379C62.5298 14.5611 63.253 14.6964 63.9149 14.8441L63.584 18.0593C63.0447 17.9854 62.1436 17.9055 60.8811 17.8192C59.6182 17.733 58.2268 17.6896 56.707 17.6896C55.5058 17.6896 54.5924 17.8066 53.9672 18.0408C53.3422 18.275 53.0051 18.7121 52.9561 19.3529C52.9068 19.7964 52.9865 20.1534 53.1948 20.4243C53.4031 20.6953 53.7099 20.9355 54.1145 21.1448C54.5188 21.3545 55.0031 21.5329 55.5667 21.681C56.1308 21.8287 56.7437 21.9887 57.4056 22.1611C57.5772 22.186 57.7489 22.2229 57.9205 22.2721C58.0675 22.3214 58.221 22.3646 58.3803 22.4015C58.5396 22.4384 58.6804 22.4695 58.8032 22.4938C59.7104 22.7154 60.55 22.9989 61.3224 23.3439C62.0946 23.6889 62.7504 24.1137 63.2897 24.6187C63.8292 25.1238 64.2459 25.7212 64.5401 26.411C64.8341 27.101 64.9568 27.9015 64.9078 28.8132C64.8588 29.9218 64.6074 30.8335 64.1541 31.5479C63.7005 32.2622 63.1118 32.8289 62.3886 33.2475C61.6656 33.6666 60.8259 33.962 59.8697 34.1344C58.9135 34.3068 57.8959 34.3933 56.8173 34.3933C55.91 34.3933 55.0337 34.2945 54.1877 34.0976C53.3422 33.9006 52.588 33.6666 51.9261 33.3955C51.1417 33.1243 50.406 32.7918 49.7197 32.3979L50.0507 29.1826C50.7862 29.4783 51.5463 29.7369 52.3308 29.9587C52.9927 30.1558 53.716 30.3284 54.5005 30.4761C55.2852 30.6238 56.0574 30.6978 56.8173 30.6978ZM81.898 33.7651C81.5795 33.8883 81.2238 33.9991 80.8315 34.0976C80.4885 34.1717 80.1023 34.2391 79.6731 34.3007C79.2441 34.3624 78.7966 34.3933 78.3311 34.3933C77.3992 34.3933 76.4614 34.3379 75.5175 34.2271C74.5737 34.1163 73.7277 33.8574 72.9801 33.451C72.2322 33.0444 71.6196 32.4408 71.1414 31.6401C70.6634 30.8393 70.4242 29.7492 70.4242 28.3697V17.8377H68.0705V16.1748L72.2264 10.373H74.0649V14.5487H80.3535V17.8377H74.0649V28.3697C74.0649 28.7391 74.0772 29.1028 74.1018 29.4598C74.1262 29.8172 74.2611 30.1373 74.5061 30.4207C74.7514 30.7039 75.1683 30.932 75.7567 31.1044C76.345 31.2768 77.2032 31.3629 78.3311 31.3629H81.5305L81.898 33.7651ZM93.4089 14.0313C93.8259 14.0313 94.3223 14.056 94.8982 14.1052C95.4744 14.1545 96.075 14.2591 96.7004 14.4194C97.3252 14.5794 97.9381 14.8011 98.5391 15.0845C99.1397 15.3677 99.6852 15.7496 100.176 16.2302C100.666 16.7105 101.058 17.3017 101.352 18.0039C101.647 18.7059 101.794 19.5498 101.794 20.5351V32.3979L100.58 32.8042C99.7709 33.0999 98.7228 33.4386 97.4355 33.8205C96.1488 34.2022 94.6225 34.3933 92.8573 34.3933C92.4406 34.3933 91.9437 34.3686 91.3679 34.3194C90.7917 34.2702 90.1911 34.1655 89.5657 34.0053C88.9409 33.8452 88.3216 33.6236 87.7087 33.3401C87.0958 33.0569 86.5503 32.675 86.0721 32.1945C85.5941 31.7141 85.2081 31.1227 84.9137 30.4207C84.6198 29.7187 84.4724 28.8748 84.4724 27.8892C84.4724 26.9037 84.6198 26.06 84.9137 25.358C85.2081 24.6556 85.5941 24.0644 86.0721 23.5842C86.5503 23.1035 87.0958 22.7218 87.7087 22.4384C88.3216 22.155 88.9409 21.9333 89.5657 21.7733C90.1911 21.6132 90.7917 21.5085 91.3679 21.4593C91.9437 21.4101 92.4406 21.3852 92.8573 21.3852C93.8868 21.3852 94.843 21.4593 95.7257 21.607C96.6082 21.7545 97.4051 21.9271 98.116 22.1244V20.5351C98.116 20.3134 98.0916 20.0426 98.0426 19.7223C97.9935 19.4021 97.8217 19.094 97.5277 18.7986C97.2334 18.5028 96.7678 18.2439 96.1303 18.0223C95.4926 17.8004 94.5858 17.6896 93.4089 17.6896C91.9134 17.6896 90.6751 17.733 89.6946 17.8192C88.714 17.9055 87.9537 17.9854 87.4146 18.0593L87.0835 14.8441C87.5984 14.6964 88.1745 14.5611 88.812 14.4379C89.3759 14.3394 90.0441 14.2468 90.8163 14.1607C91.5885 14.0744 92.4527 14.0313 93.4089 14.0313ZM92.8573 30.7346C94.1321 30.7346 95.2048 30.6485 96.075 30.4761C96.9454 30.3035 97.6257 30.1188 98.116 29.9218V25.8567C97.6257 25.6596 96.9454 25.475 96.075 25.3024C95.2048 25.13 94.1321 25.0435 92.8573 25.0435C91.6803 25.0435 90.7734 25.1545 90.1359 25.3762C89.4986 25.5982 89.0327 25.8567 88.7384 26.1525C88.4444 26.4479 88.2728 26.756 88.2238 27.0763C88.1745 27.3964 88.15 27.6673 88.15 27.8892C88.15 28.1108 88.1745 28.3821 88.2238 28.7024C88.2728 29.0225 88.4444 29.3306 88.7384 29.626C89.0327 29.9218 89.4986 30.1742 90.1359 30.3838C90.7734 30.5931 91.6803 30.6978 92.8573 30.6978V30.7346ZM119.924 23.122C119.924 21.9395 119.783 20.9909 119.501 20.2766C119.219 19.5622 118.845 19.0141 118.379 18.632C117.913 18.2501 117.386 17.9977 116.798 17.8746C116.209 17.7512 115.608 17.6896 114.996 17.6896C114.334 17.6896 113.555 17.7392 112.661 17.8377C111.766 17.9362 110.779 18.1578 109.7 18.5028V33.8759H106.023V16.1375C106.611 15.9159 107.267 15.6819 107.99 15.4357C108.713 15.1891 109.473 14.9611 110.27 14.7518C111.067 14.5425 111.876 14.3701 112.697 14.2344C113.519 14.0991 114.309 14.0313 115.069 14.0313C115.903 14.0313 116.816 14.1114 117.809 14.2717C118.802 14.4317 119.727 14.8134 120.586 15.417C121.444 16.0205 122.161 16.9322 122.737 18.1516C123.313 19.3711 123.601 21.0282 123.601 23.122V33.8759H119.924V23.122ZM135.958 34.3933C135.712 34.3933 135.32 34.381 134.781 34.3561C134.242 34.3317 133.653 34.2271 133.016 34.0421C132.378 33.8574 131.722 33.562 131.048 33.1554C130.374 32.7488 129.755 32.1699 129.191 31.4183C128.627 30.6671 128.167 29.7062 127.812 28.5359C127.456 27.3657 127.279 25.9308 127.279 24.2307C127.279 22.531 127.456 21.0956 127.812 19.9254C128.167 18.7552 128.627 17.7946 129.191 17.043C129.755 16.2916 130.374 15.7128 131.048 15.3061C131.722 14.8995 132.378 14.598 133.016 14.4007C133.653 14.2037 134.235 14.0929 134.762 14.0682C135.29 14.0437 135.688 14.0313 135.958 14.0313C136.987 14.0313 137.944 14.1052 138.826 14.2529C139.709 14.4007 140.506 14.5733 141.217 14.7704V7.30566H144.894V32.3979L143.68 32.8042C142.871 33.0999 141.823 33.4386 140.536 33.8205C139.249 34.2022 137.723 34.3933 135.958 34.3933ZM135.958 17.6896C135.516 17.6896 135.014 17.745 134.45 17.8559C133.886 17.9669 133.347 18.2439 132.832 18.6874C132.317 19.1313 131.882 19.7902 131.526 20.6646C131.171 21.5391 130.993 22.728 130.993 24.2307C130.993 25.7335 131.171 26.9161 131.526 27.7782C131.882 28.6406 132.317 29.2934 132.832 29.7369C133.347 30.1803 133.886 30.4574 134.45 30.5684C135.014 30.6792 135.516 30.7346 135.958 30.7346C137.233 30.7346 138.305 30.6485 139.176 30.4761C140.046 30.3035 140.726 30.1188 141.217 29.9218V18.5028C140.726 18.3055 140.046 18.1211 139.176 17.9485C138.305 17.7761 137.233 17.6896 135.958 17.6896ZM157.692 14.0313C158.109 14.0313 158.605 14.056 159.181 14.1052C159.758 14.1545 160.358 14.2591 160.983 14.4194C161.608 14.5794 162.221 14.8011 162.822 15.0845C163.423 15.3677 163.968 15.7496 164.458 16.2302C164.949 16.7105 165.341 17.3017 165.635 18.0039C165.93 18.7059 166.077 19.5498 166.077 20.5351V32.3979L164.863 32.8042C164.054 33.0999 163.006 33.4386 161.719 33.8205C160.432 34.2022 158.905 34.3933 157.14 34.3933C156.724 34.3933 156.227 34.3686 155.651 34.3194C155.075 34.2702 154.474 34.1655 153.849 34.0053C153.224 33.8452 152.605 33.6236 151.992 33.3401C151.379 33.0569 150.833 32.675 150.355 32.1945C149.877 31.7141 149.491 31.1227 149.197 30.4207C148.903 29.7187 148.755 28.8748 148.755 27.8892C148.755 26.9037 148.903 26.06 149.197 25.358C149.491 24.6556 149.877 24.0644 150.355 23.5842C150.833 23.1035 151.379 22.7218 151.992 22.4384C152.605 22.155 153.224 21.9333 153.849 21.7733C154.474 21.6132 155.075 21.5085 155.651 21.4593C156.227 21.4101 156.724 21.3852 157.14 21.3852C158.17 21.3852 159.126 21.4593 160.009 21.607C160.891 21.7545 161.688 21.9271 162.399 22.1244V20.5351C162.399 20.3134 162.375 20.0426 162.326 19.7223C162.276 19.4021 162.105 19.094 161.811 18.7986C161.517 18.5028 161.051 18.2439 160.413 18.0223C159.776 17.8004 158.869 17.6896 157.692 17.6896C156.196 17.6896 154.958 17.733 153.978 17.8192C152.997 17.9055 152.237 17.9854 151.698 18.0593L151.366 14.8441C151.881 14.6964 152.457 14.5611 153.095 14.4379C153.659 14.3394 154.327 14.2468 155.099 14.1607C155.871 14.0744 156.736 14.0313 157.692 14.0313ZM157.14 30.7346C158.415 30.7346 159.488 30.6485 160.358 30.4761C161.228 30.3035 161.909 30.1188 162.399 29.9218V25.8567C161.909 25.6596 161.228 25.475 160.358 25.3024C159.488 25.13 158.415 25.0435 157.14 25.0435C155.963 25.0435 155.056 25.1545 154.419 25.3762C153.782 25.5982 153.316 25.8567 153.021 26.1525C152.727 26.4479 152.556 26.756 152.507 27.0763C152.457 27.3964 152.433 27.6673 152.433 27.8892C152.433 28.1108 152.457 28.3821 152.507 28.7024C152.556 29.0225 152.727 29.3306 153.021 29.626C153.316 29.9218 153.782 30.1742 154.419 30.3838C155.056 30.5931 155.963 30.6978 157.14 30.6978V30.7346ZM179.279 14.0313C179.744 14.0313 180.186 14.062 180.603 14.1236C181.019 14.1852 181.399 14.2529 181.743 14.3271C182.135 14.4255 182.491 14.524 182.809 14.6225L182.478 17.6896H179.279C177.979 17.6896 176.894 17.7761 176.024 17.9485C175.154 18.1211 174.473 18.3055 173.983 18.5028V33.8759H170.305V16.1375C171.016 15.8423 171.715 15.5709 172.402 15.3247C173.088 15.0783 173.787 14.8565 174.498 14.6595C175.209 14.4622 175.95 14.3084 176.723 14.1975C177.495 14.0867 178.347 14.0313 179.279 14.0313ZM198.659 33.7651C198.341 33.8883 197.985 33.9991 197.593 34.0976C197.25 34.1717 196.864 34.2391 196.434 34.3007C196.005 34.3624 195.558 34.3933 195.092 34.3933C194.16 34.3933 193.223 34.3379 192.279 34.2271C191.335 34.1163 190.489 33.8574 189.741 33.451C188.993 33.0444 188.381 32.4408 187.902 31.6401C187.425 30.8393 187.185 29.7492 187.185 28.3697V17.8377H184.832V16.1748L188.988 10.373H190.826V14.5487H197.115V17.8377H190.826V28.3697C190.826 28.7391 190.839 29.1028 190.863 29.4598C190.887 29.8172 191.022 30.1373 191.267 30.4207C191.513 30.7039 191.93 30.932 192.518 31.1044C193.106 31.2768 193.964 31.3629 195.092 31.3629H198.292L198.659 33.7651Z" fill="#C1915C"/>
<path d="M14.9194 57.7236H13.4774L9.93541 53.5236L8.99741 54.5876V57.7236H7.83541V48.3856H8.99741V53.2156L13.1274 48.3856H14.5834L10.6914 52.8236L14.9194 57.7236ZM16.7196 49.9956C16.5329 49.9956 16.3696 49.9303 16.2296 49.7996C16.0896 49.6596 16.0196 49.4916 16.0196 49.2956C16.0196 49.0996 16.0896 48.9316 16.2296 48.7916C16.3696 48.6516 16.5329 48.5816 16.7196 48.5816C16.9156 48.5816 17.0836 48.6516 17.2236 48.7916C17.3636 48.9316 17.4336 49.0996 17.4336 49.2956C17.4336 49.4916 17.3636 49.6596 17.2236 49.7996C17.0836 49.9303 16.9156 49.9956 16.7196 49.9956ZM17.2516 57.7236H16.2016V50.9616H17.2516V57.7236ZM21.0541 57.8916C20.5595 57.8916 20.1861 57.7563 19.9341 57.4856C19.6821 57.215 19.5561 56.823 19.5561 56.3096V51.8856H18.4361V50.9616H19.5561V49.1136H20.6061V50.9616H21.9781V51.8856H20.6061V56.0856C20.6061 56.347 20.6621 56.557 20.7741 56.7156C20.8955 56.8743 21.0681 56.9536 21.2921 56.9536C21.6001 56.9536 21.8381 56.8603 22.0061 56.6736L22.3141 57.4576C22.0061 57.747 21.5861 57.8916 21.0541 57.8916ZM26.4434 57.8916C25.4447 57.8916 24.6327 57.5556 24.0074 56.8836C23.382 56.2023 23.0694 55.353 23.0694 54.3356C23.0694 53.3183 23.382 52.4736 24.0074 51.8016C24.6327 51.1296 25.4447 50.7936 26.4434 50.7936C27.4887 50.7936 28.3147 51.1856 28.9214 51.9696L28.2214 52.6136C27.792 52.0256 27.218 51.7316 26.4994 51.7316C25.79 51.7316 25.2207 51.9743 24.7914 52.4596C24.3714 52.945 24.1614 53.5703 24.1614 54.3356C24.1614 55.101 24.3714 55.731 24.7914 56.2256C25.2207 56.711 25.79 56.9536 26.4994 56.9536C27.2087 56.9536 27.7827 56.6596 28.2214 56.0716L28.9214 56.7156C28.3147 57.4996 27.4887 57.8916 26.4434 57.8916ZM36.021 57.7236H34.971V53.2716C34.971 52.7116 34.8404 52.315 34.579 52.0816C34.3177 51.8483 33.9397 51.7316 33.445 51.7316C33.0624 51.7316 32.6844 51.8343 32.311 52.0396C31.947 52.245 31.6577 52.4923 31.443 52.7816V57.7236H30.393V48.3856H31.443V51.9416C31.7044 51.6336 32.0544 51.3676 32.493 51.1436C32.9317 50.9103 33.389 50.7936 33.865 50.7936C35.3024 50.7936 36.021 51.5123 36.021 52.9496V57.7236ZM41.1696 57.8916C40.1616 57.8916 39.3356 57.565 38.6916 56.9116C38.0476 56.249 37.7256 55.3903 37.7256 54.3356C37.7256 53.3463 38.043 52.511 38.6776 51.8296C39.3123 51.139 40.1056 50.7936 41.0576 50.7936C42.0563 50.7936 42.845 51.139 43.4236 51.8296C44.0116 52.511 44.3056 53.3743 44.3056 54.4196V54.6856H38.8316C38.8783 55.3483 39.121 55.9036 39.5596 56.3516C39.9983 56.7996 40.5676 57.0236 41.2676 57.0236C42.1076 57.0236 42.803 56.739 43.3536 56.1696L43.8576 56.8556C43.167 57.5463 42.271 57.8916 41.1696 57.8916ZM43.2696 53.9156C43.2603 53.337 43.0643 52.819 42.6816 52.3616C42.299 51.895 41.753 51.6616 41.0436 51.6616C40.3716 51.6616 39.8396 51.8903 39.4476 52.3476C39.065 52.805 38.8596 53.3276 38.8316 53.9156H43.2696ZM51.6203 57.7236H50.5703V53.2996C50.5703 52.7303 50.4396 52.329 50.1783 52.0956C49.917 51.853 49.5436 51.7316 49.0583 51.7316C48.6663 51.7316 48.2836 51.8343 47.9103 52.0396C47.5463 52.245 47.2616 52.4923 47.0563 52.7816V57.7236H46.0063V50.9616H47.0563V51.9416C47.3176 51.6336 47.6676 51.3676 48.1063 51.1436C48.545 50.9103 48.9976 50.7936 49.4643 50.7936C50.9016 50.7936 51.6203 51.5216 51.6203 52.9776V57.7236ZM64.8586 57.7236H63.4026C63.1226 57.481 62.7819 57.1543 62.3806 56.7436C61.6153 57.509 60.7193 57.8916 59.6926 57.8916C58.8433 57.8916 58.1433 57.6676 57.5926 57.2196C57.0513 56.7623 56.7806 56.1183 56.7806 55.2876C56.7806 54.625 56.9626 54.0836 57.3266 53.6636C57.6906 53.2436 58.1946 52.861 58.8386 52.5156C58.3626 51.7036 58.1246 51.0036 58.1246 50.4156C58.1246 49.7996 58.3486 49.2863 58.7966 48.8756C59.2539 48.4556 59.8139 48.2456 60.4766 48.2456C61.1019 48.2456 61.6106 48.409 62.0026 48.7356C62.3946 49.053 62.5906 49.501 62.5906 50.0796C62.5906 50.4156 62.5299 50.719 62.4086 50.9896C62.2873 51.251 62.0913 51.4936 61.8206 51.7176C61.5499 51.9323 61.3119 52.1003 61.1066 52.2216C60.9106 52.343 60.6119 52.5063 60.2106 52.7116C60.5093 53.1223 60.8686 53.5656 61.2886 54.0416C61.6246 54.443 61.9933 54.8583 62.3946 55.2876C62.8053 54.681 63.1413 53.9716 63.4026 53.1596L64.3126 53.5516C63.8553 54.6156 63.4306 55.4183 63.0386 55.9596C63.5053 56.445 64.1119 57.033 64.8586 57.7236ZM59.7906 57.0236C60.4813 57.0236 61.1346 56.7156 61.7506 56.0996C61.1346 55.4556 60.7053 54.9843 60.4626 54.6856C60.0333 54.191 59.6413 53.6963 59.2866 53.2016C58.8479 53.4723 58.5073 53.7663 58.2646 54.0836C58.0313 54.3916 57.9146 54.7696 57.9146 55.2176C57.9146 55.7776 58.0966 56.221 58.4606 56.5476C58.8339 56.865 59.2773 57.0236 59.7906 57.0236ZM59.2166 50.4296C59.2166 50.8683 59.4033 51.405 59.7766 52.0396C60.3833 51.741 60.8406 51.4516 61.1486 51.1716C61.4659 50.8916 61.6246 50.5416 61.6246 50.1216C61.6246 49.7856 61.5219 49.529 61.3166 49.3516C61.1113 49.165 60.8453 49.0716 60.5186 49.0716C60.1546 49.0716 59.8466 49.2023 59.5946 49.4636C59.3426 49.7156 59.2166 50.0376 59.2166 50.4296ZM71.1087 57.7236H69.9467V48.3856H76.0647V49.4216H71.1087V52.4316H75.9667V53.4676H71.1087V57.7236ZM83.216 57.7236H82.166V56.7716C81.886 57.089 81.5313 57.355 81.102 57.5696C80.682 57.7843 80.234 57.8916 79.758 57.8916C78.3207 57.8916 77.602 57.173 77.602 55.7356V50.9616H78.652V55.4136C78.652 55.9736 78.778 56.3703 79.03 56.6036C79.2913 56.837 79.6693 56.9536 80.164 56.9536C80.556 56.9536 80.934 56.8556 81.298 56.6596C81.6713 56.4636 81.9607 56.221 82.166 55.9316V50.9616H83.216V57.7236ZM86.3629 57.7236H85.3129V50.9616H86.3629V52.0536C86.9883 51.2323 87.7396 50.8216 88.6169 50.8216V51.8996C88.4863 51.8716 88.3463 51.8576 88.1969 51.8576C87.8796 51.8576 87.5343 51.9696 87.1609 52.1936C86.7876 52.4176 86.5216 52.665 86.3629 52.9356V57.7236ZM95.548 57.7236H94.498V53.2996C94.498 52.7303 94.3674 52.329 94.106 52.0956C93.8447 51.853 93.4714 51.7316 92.986 51.7316C92.594 51.7316 92.2114 51.8343 91.838 52.0396C91.474 52.245 91.1894 52.4923 90.984 52.7816V57.7236H89.934V50.9616H90.984V51.9416C91.2454 51.6336 91.5954 51.3676 92.034 51.1436C92.4727 50.9103 92.9254 50.7936 93.392 50.7936C94.8294 50.7936 95.548 51.5216 95.548 52.9776V57.7236ZM98.163 49.9956C97.9763 49.9956 97.813 49.9303 97.673 49.7996C97.533 49.6596 97.463 49.4916 97.463 49.2956C97.463 49.0996 97.533 48.9316 97.673 48.7916C97.813 48.6516 97.9763 48.5816 98.163 48.5816C98.359 48.5816 98.527 48.6516 98.667 48.7916C98.807 48.9316 98.877 49.0996 98.877 49.2956C98.877 49.4916 98.807 49.6596 98.667 49.7996C98.527 49.9303 98.359 49.9956 98.163 49.9956ZM98.695 57.7236H97.645V50.9616H98.695V57.7236ZM102.498 57.8916C102.003 57.8916 101.63 57.7563 101.378 57.4856C101.126 57.215 101 56.823 101 56.3096V51.8856H99.8795V50.9616H101V49.1136H102.05V50.9616H103.422V51.8856H102.05V56.0856C102.05 56.347 102.106 56.557 102.218 56.7156C102.339 56.8743 102.512 56.9536 102.736 56.9536C103.044 56.9536 103.282 56.8603 103.45 56.6736L103.758 57.4576C103.45 57.747 103.03 57.8916 102.498 57.8916ZM110.519 57.7236H109.469V56.7716C109.189 57.089 108.834 57.355 108.405 57.5696C107.985 57.7843 107.537 57.8916 107.061 57.8916C105.623 57.8916 104.905 57.173 104.905 55.7356V50.9616H105.955V55.4136C105.955 55.9736 106.081 56.3703 106.333 56.6036C106.594 56.837 106.972 56.9536 107.467 56.9536C107.859 56.9536 108.237 56.8556 108.601 56.6596C108.974 56.4636 109.263 56.221 109.469 55.9316V50.9616H110.519V57.7236ZM113.666 57.7236H112.616V50.9616H113.666V52.0536C114.291 51.2323 115.042 50.8216 115.92 50.8216V51.8996C115.789 51.8716 115.649 51.8576 115.5 51.8576C115.182 51.8576 114.837 51.9696 114.464 52.1936C114.09 52.4176 113.824 52.665 113.666 52.9356V57.7236ZM120.289 57.8916C119.281 57.8916 118.455 57.565 117.811 56.9116C117.167 56.249 116.845 55.3903 116.845 54.3356C116.845 53.3463 117.162 52.511 117.797 51.8296C118.431 51.139 119.225 50.7936 120.177 50.7936C121.175 50.7936 121.964 51.139 122.543 51.8296C123.131 52.511 123.425 53.3743 123.425 54.4196V54.6856H117.951C117.997 55.3483 118.24 55.9036 118.679 56.3516C119.117 56.7996 119.687 57.0236 120.387 57.0236C121.227 57.0236 121.922 56.739 122.473 56.1696L122.977 56.8556C122.286 57.5463 121.39 57.8916 120.289 57.8916ZM122.389 53.9156C122.379 53.337 122.183 52.819 121.801 52.3616C121.418 51.895 120.872 51.6616 120.163 51.6616C119.491 51.6616 118.959 51.8903 118.567 52.3476C118.184 52.805 117.979 53.3276 117.951 53.9156H122.389ZM136.267 57.7236H134.811C134.531 57.481 134.19 57.1543 133.789 56.7436C133.023 57.509 132.127 57.8916 131.101 57.8916C130.251 57.8916 129.551 57.6676 129.001 57.2196C128.459 56.7623 128.189 56.1183 128.189 55.2876C128.189 54.625 128.371 54.0836 128.735 53.6636C129.099 53.2436 129.603 52.861 130.247 52.5156C129.771 51.7036 129.533 51.0036 129.533 50.4156C129.533 49.7996 129.757 49.2863 130.205 48.8756C130.662 48.4556 131.222 48.2456 131.885 48.2456C132.51 48.2456 133.019 48.409 133.411 48.7356C133.803 49.053 133.999 49.501 133.999 50.0796C133.999 50.4156 133.938 50.719 133.817 50.9896C133.695 51.251 133.499 51.4936 133.229 51.7176C132.958 51.9323 132.72 52.1003 132.515 52.2216C132.319 52.343 132.02 52.5063 131.619 52.7116C131.917 53.1223 132.277 53.5656 132.697 54.0416C133.033 54.443 133.401 54.8583 133.803 55.2876C134.213 54.681 134.549 53.9716 134.811 53.1596L135.721 53.5516C135.263 54.6156 134.839 55.4183 134.447 55.9596C134.913 56.445 135.52 57.033 136.267 57.7236ZM131.199 57.0236C131.889 57.0236 132.543 56.7156 133.159 56.0996C132.543 55.4556 132.113 54.9843 131.871 54.6856C131.441 54.191 131.049 53.6963 130.695 53.2016C130.256 53.4723 129.915 53.7663 129.673 54.0836C129.439 54.3916 129.323 54.7696 129.323 55.2176C129.323 55.7776 129.505 56.221 129.869 56.5476C130.242 56.865 130.685 57.0236 131.199 57.0236ZM130.625 50.4296C130.625 50.8683 130.811 51.405 131.185 52.0396C131.791 51.741 132.249 51.4516 132.557 51.1716C132.874 50.8916 133.033 50.5416 133.033 50.1216C133.033 49.7856 132.93 49.529 132.725 49.3516C132.519 49.165 132.253 49.0716 131.927 49.0716C131.563 49.0716 131.255 49.2023 131.003 49.4636C130.751 49.7156 130.625 50.0376 130.625 50.4296ZM144.547 57.7236H141.355V48.3856H144.547C145.975 48.3856 147.128 48.829 148.005 49.7156C148.892 50.6023 149.335 51.7176 149.335 53.0616C149.335 54.415 148.892 55.5303 148.005 56.4076C147.128 57.285 145.975 57.7236 144.547 57.7236ZM144.547 56.6876C145.648 56.6876 146.521 56.3423 147.165 55.6516C147.809 54.961 148.131 54.0976 148.131 53.0616C148.131 52.0163 147.814 51.1483 147.179 50.4576C146.544 49.767 145.667 49.4216 144.547 49.4216H142.517V56.6876H144.547ZM154.168 57.8916C153.16 57.8916 152.334 57.565 151.69 56.9116C151.046 56.249 150.724 55.3903 150.724 54.3356C150.724 53.3463 151.041 52.511 151.676 51.8296C152.31 51.139 153.104 50.7936 154.056 50.7936C155.054 50.7936 155.843 51.139 156.422 51.8296C157.01 52.511 157.304 53.3743 157.304 54.4196V54.6856H151.83C151.876 55.3483 152.119 55.9036 152.558 56.3516C152.996 56.7996 153.566 57.0236 154.266 57.0236C155.106 57.0236 155.801 56.739 156.352 56.1696L156.856 56.8556C156.165 57.5463 155.269 57.8916 154.168 57.8916ZM156.268 53.9156C156.258 53.337 156.062 52.819 155.68 52.3616C155.297 51.895 154.751 51.6616 154.042 51.6616C153.37 51.6616 152.838 51.8903 152.446 52.3476C152.063 52.805 151.858 53.3276 151.83 53.9156H156.268ZM161.146 57.8916C159.998 57.8916 159.088 57.537 158.416 56.8276L158.962 56.0716C159.196 56.3423 159.513 56.571 159.914 56.7576C160.325 56.9443 160.75 57.0376 161.188 57.0376C161.692 57.0376 162.084 56.9303 162.364 56.7156C162.644 56.501 162.784 56.221 162.784 55.8756C162.784 55.577 162.64 55.3436 162.35 55.1756C162.061 54.9983 161.711 54.8676 161.3 54.7836C160.899 54.6903 160.493 54.5876 160.082 54.4756C159.672 54.3543 159.322 54.1536 159.032 53.8736C158.743 53.5843 158.598 53.2063 158.598 52.7396C158.598 52.189 158.822 51.727 159.27 51.3536C159.728 50.9803 160.344 50.7936 161.118 50.7936C162.136 50.7936 162.971 51.1203 163.624 51.7736L163.134 52.5016C162.658 51.9323 161.986 51.6476 161.118 51.6476C160.661 51.6476 160.297 51.7503 160.026 51.9556C159.756 52.1516 159.62 52.4036 159.62 52.7116C159.62 52.9823 159.765 53.197 160.054 53.3556C160.344 53.505 160.689 53.6263 161.09 53.7196C161.501 53.8036 161.912 53.9063 162.322 54.0276C162.733 54.149 163.083 54.3636 163.372 54.6716C163.662 54.9703 163.806 55.3623 163.806 55.8476C163.806 56.445 163.573 56.935 163.106 57.3176C162.64 57.7003 161.986 57.8916 161.146 57.8916ZM166.03 49.9956C165.843 49.9956 165.68 49.9303 165.54 49.7996C165.4 49.6596 165.33 49.4916 165.33 49.2956C165.33 49.0996 165.4 48.9316 165.54 48.7916C165.68 48.6516 165.843 48.5816 166.03 48.5816C166.226 48.5816 166.394 48.6516 166.534 48.7916C166.674 48.9316 166.744 49.0996 166.744 49.2956C166.744 49.4916 166.674 49.6596 166.534 49.7996C166.394 49.9303 166.226 49.9956 166.03 49.9956ZM166.562 57.7236H165.512V50.9616H166.562V57.7236ZM171.373 60.4676C170.775 60.4676 170.267 60.393 169.847 60.2436C169.427 60.1036 169.025 59.8423 168.643 59.4596L169.175 58.6756C169.688 59.2916 170.421 59.5996 171.373 59.5996C171.998 59.5996 172.516 59.4316 172.927 59.0956C173.337 58.769 173.543 58.2603 173.543 57.5696V56.6036C173.291 56.9583 172.964 57.2476 172.563 57.4716C172.161 57.6956 171.732 57.8076 171.275 57.8076C170.379 57.8076 169.651 57.495 169.091 56.8696C168.54 56.235 168.265 55.381 168.265 54.3076C168.265 53.2343 168.54 52.3803 169.091 51.7456C169.651 51.111 170.379 50.7936 171.275 50.7936C172.199 50.7936 172.955 51.1903 173.543 51.9836V50.9616H174.593V57.5276C174.593 58.5636 174.289 59.3103 173.683 59.7676C173.076 60.2343 172.306 60.4676 171.373 60.4676ZM171.527 56.8836C171.928 56.8836 172.315 56.7763 172.689 56.5616C173.071 56.347 173.356 56.0856 173.543 55.7776V52.8236C173.356 52.5156 173.076 52.259 172.703 52.0536C172.329 51.839 171.937 51.7316 171.527 51.7316C170.855 51.7316 170.323 51.9696 169.931 52.4456C169.548 52.9216 169.357 53.5423 169.357 54.3076C169.357 55.0636 169.553 55.6843 169.945 56.1696C170.337 56.6456 170.864 56.8836 171.527 56.8836ZM182.31 57.7236H181.26V53.2996C181.26 52.7303 181.129 52.329 180.868 52.0956C180.606 51.853 180.233 51.7316 179.748 51.7316C179.356 51.7316 178.973 51.8343 178.6 52.0396C178.236 52.245 177.951 52.4923 177.746 52.7816V57.7236H176.696V50.9616H177.746V51.9416C178.007 51.6336 178.357 51.3676 178.796 51.1436C179.234 50.9103 179.687 50.7936 180.154 50.7936C181.591 50.7936 182.31 51.5216 182.31 52.9776V57.7236Z" fill="#C1915C"/>
</svg>
