<?xml version="1.0" encoding="UTF-8" standalone="no"?>
<!DOCTYPE svg PUBLIC "-//W3C//DTD SVG 20010904//EN" "http://www.w3.org/TR/2001/REC-SVG-20010904/DTD/svg10.dtd">
<svg version="1.0" xmlns="http://www.w3.org/2000/svg" width="2420.000000pt" height="2420.000000pt" viewBox="0 0 2420.000000 2420.000000" preserveAspectRatio="xMidYMid meet">
<metadata>
Created by potrace 1.16, written by Peter Selinger 2001-2019
</metadata>
<g transform="translate(0.000000,2420.000000) scale(0.100000,-0.100000)" fill="#C1915C" stroke="none">
<path d="M11960 20505 c-47 -46 -89 -89 -95 -94 -5 -6 -63 -62 -127 -124 -65 -63 -118 -120 -118 -126 0 -6 -4 -11 -10 -11 -9 0 -109 -96 -177 -170 -17 -19 -61 -62 -97 -95 -36 -33 -66 -66 -66 -72 0 -7 -4 -13 -8 -13 -11 0 -192 -179 -192 -191 0 -5 -4 -9 -9 -9 -13 0 -91 -76 -91 -89 0 -5 -9 -13 -21 -16 -11 -4 -24 -18 -29 -31 -5 -13 -14 -24 -20 -24 -13 0 -125 -112 -133 -133 -3 -9 -12 -17 -19 -17 -13 0 -88 -77 -88 -91 0 -5 -7 -9 -15 -9 -9 0 -21 -11 -27 -25 -6 -14 -17 -25 -23 -25 -7 0 -36 -28 -66 -61 -30 -34 -61 -68 -69 -76 -91 -83 -150 -141 -150 -147 0 -4 -17 -21 -37 -39 -21 -18 -85 -81 -143 -142 -58 -60 -125 -127 -149 -150 -95 -88 -121 -114 -121 -123 0 -5 -11 -14 -25 -20 -14 -6 -25 -18 -25 -27 0 -8 -4 -15 -9 -15 -12 0 -141 -128 -141 -140 0 -6 -4 -10 -9 -10 -11 0 -91 -73 -91 -83 0 -9 -67 -77 -76 -77 -9 0 -121 -118 -128 -135 -3 -8 -10 -15 -16 -15 -10 0 -54 -43 -242 -237 -31 -32 -78 -78 -105 -103 -26 -25 -62 -61 -78 -80 -17 -19 -56 -59 -88 -88 -31 -29 -61 -61 -67 -72 -5 -10 -19 -22 -30 -25 -11 -3 -20 -13 -20 -20 0 -8 -9 -19 -20 -25 -17 -9 -46 -37 -96 -91 -5 -6 -37 -36 -71 -68 -35 -33 -63 -62 -63 -66 0 -9 -82 -85 -91 -85 -4 0 -10 -8 -14 -18 -3 -11 -17 -24 -30 -30 -14 -6 -25 -18 -25 -26 0 -8 -9 -18 -20 -21 -11 -3 -20 -10 -20 -14 0 -11 -80 -91 -90 -91 -4 0 -12 -11 -18 -25 -6 -14 -18 -25 -26 -25 -8 0 -18 -9 -21 -20 -3 -11 -10 -20 -15 -20 -11 0 -90 -76 -90 -87 -1 -4 -19 -24 -41 -43 -36 -31 -74 -69 -242 -240 -24 -25 -71 -70 -105 -102 -34 -31 -62 -61 -62 -67 0 -6 -11 -17 -25 -23 -14 -6 -25 -17 -25 -25 0 -7 -7 -16 -16 -20 -21 -8 -134 -121 -134 -134 0 -5 -11 -14 -25 -19 -14 -5 -25 -16 -25 -25 0 -9 -11 -20 -24 -25 -13 -5 -27 -18 -31 -29 -3 -12 -13 -21 -21 -21 -8 0 -19 -11 -24 -25 -5 -14 -14 -25 -19 -25 -8 0 -24 -15 -123 -117 -21 -21 -55 -54 -75 -74 -21 -20 -55 -54 -75 -75 -20 -22 -43 -44 -50 -51 -12 -10 -361 -360 -391 -391 -96 -100 -150 -152 -157 -152 -6 0 -10 -5 -10 -11 0 -14 -70 -83 -93 -92 -9 -3 -17 -13 -17 -20 0 -8 -11 -19 -25 -25 -14 -6 -25 -16 -25 -22 0 -11 -65 -80 -75 -80 -6 0 -75 -67 -75 -73 0 -9 -69 -77 -79 -77 -5 0 -12 -8 -16 -18 -3 -11 -17 -24 -30 -30 -14 -6 -25 -17 -25 -24 0 -7 -19 -29 -42 -48 -22 -19 -55 -51 -72 -70 -17 -18 -60 -61 -95 -95 -34 -33 -79 -78 -100 -99 -72 -77 -420 -422 -455 -451 -19 -16 -36 -35 -36 -40 0 -6 -18 -26 -41 -45 -46 -40 -100 -92 -146 -144 -18 -19 -42 -40 -53 -46 -11 -6 -20 -15 -20 -20 0 -13 -126 -140 -139 -140 -6 0 -11 -4 -11 -9 0 -11 -626 -641 -638 -641 -4 -1 -23 -21 -42 -45 -19 -25 -43 -48 -52 -51 -10 -3 -18 -12 -18 -20 0 -8 -11 -20 -25 -26 -14 -6 -25 -15 -25 -20 0 -9 -117 -128 -126 -128 -9 0 -74 -67 -74 -75 0 -4 -19 -24 -43 -46 -52 -49 4 7 -427 -426 -204 -205 -375 -373 -380 -373 -6 0 -10 -6 -10 -14 0 -8 -9 -18 -20 -21 -11 -3 -20 -11 -20 -17 0 -12 -138 -148 -151 -148 -5 0 -9 -4 -9 -9 0 -13 -1177 -1191 -1190 -1191 -5 0 -10 -4 -10 -9 0 -6 -101 -112 -225 -237 l-225 -227 0 -115 0 -116 517 -517 c284 -285 520 -516 523 -514 4 3 34 0 66 -5 l59 -10 2421 2421 c1331 1331 2427 2425 2434 2429 8 5 23 4 34 -2 26 -13 136 -124 136 -136 0 -5 11 -15 25 -22 14 -7 25 -19 25 -25 0 -7 11 -17 25 -23 14 -6 25 -18 25 -27 0 -8 5 -15 10 -15 12 0 90 -77 90 -88 0 -4 14 -15 31 -24 17 -10 28 -22 25 -26 -3 -5 6 -15 19 -22 14 -7 25 -18 25 -25 0 -6 14 -19 30 -29 17 -9 28 -21 26 -25 -3 -4 8 -15 25 -25 16 -9 27 -21 25 -25 -3 -4 8 -15 25 -25 16 -9 27 -21 25 -25 -3 -4 8 -15 25 -25 16 -9 27 -21 25 -25 -3 -4 8 -15 25 -25 16 -9 27 -22 24 -27 -4 -5 -1 -9 4 -9 6 0 64 -54 128 -119 65 -66 123 -125 130 -131 6 -6 41 -40 77 -75 36 -35 66 -68 66 -74 0 -6 5 -11 10 -11 12 0 340 -327 340 -339 0 -4 12 -13 26 -20 17 -7 24 -17 20 -26 -3 -9 0 -15 9 -15 15 0 145 -124 145 -138 0 -5 11 -14 25 -20 14 -6 25 -18 25 -25 0 -8 11 -19 25 -25 14 -6 25 -18 25 -25 0 -8 11 -20 25 -27 14 -7 25 -19 25 -25 0 -6 11 -18 25 -25 14 -7 25 -19 25 -27 0 -7 5 -13 11 -13 13 0 189 -178 189 -191 0 -5 4 -9 9 -9 12 0 141 -129 141 -141 0 -5 11 -15 25 -21 14 -6 25 -16 25 -23 0 -6 11 -18 25 -25 14 -7 25 -19 25 -27 0 -7 4 -13 9 -13 13 0 146 -132 143 -142 -1 -5 9 -14 23 -20 14 -6 25 -16 25 -22 0 -7 14 -20 30 -30 17 -9 28 -22 25 -27 -4 -5 -2 -9 4 -9 13 0 196 -183 193 -192 -1 -5 2 -8 6 -8 16 0 104 -89 98 -99 -3 -5 7 -14 23 -19 16 -6 32 -19 35 -30 4 -11 16 -22 28 -25 14 -4 19 -11 15 -21 -4 -10 -1 -16 8 -16 15 0 395 -373 395 -388 0 -5 11 -14 25 -20 14 -6 25 -18 25 -27 0 -8 5 -15 10 -15 13 0 290 -276 290 -290 0 -5 5 -10 10 -10 6 0 24 -14 40 -30 16 -17 34 -30 40 -30 27 0 4 -35 -67 -103 -23 -22 -40 -44 -36 -50 3 -6 2 -7 -4 -4 -10 6 -51 -30 -52 -45 -1 -5 -3 -7 -6 -5 -9 5 -104 -97 -98 -106 3 -6 2 -7 -4 -4 -12 8 -54 -38 -45 -49 4 -4 2 -4 -4 -1 -13 7 -47 -26 -38 -36 4 -4 -2 -10 -12 -13 -29 -11 -54 -35 -47 -47 3 -5 2 -7 -4 -4 -13 8 -56 -37 -46 -48 5 -4 3 -5 -3 -2 -6 4 -22 -5 -34 -18 -13 -14 -19 -25 -14 -25 5 0 -2 -6 -16 -13 -14 -8 -24 -19 -23 -25 2 -6 -10 -18 -26 -27 -17 -8 -33 -20 -37 -26 -5 -8 -3 -9 6 -4 9 5 11 4 6 -3 -4 -7 -13 -12 -20 -12 -17 0 -48 -35 -39 -43 3 -4 0 -7 -8 -7 -8 0 -35 -21 -59 -46 -25 -26 -39 -43 -31 -39 9 5 12 4 7 -3 -4 -7 -13 -12 -20 -12 -17 0 -48 -35 -39 -43 3 -4 0 -7 -9 -7 -18 0 -51 -34 -41 -43 3 -4 0 -7 -8 -7 -20 0 -101 -84 -92 -95 5 -4 3 -5 -3 -2 -13 7 -57 -36 -47 -46 3 -4 0 -7 -9 -7 -15 0 -46 -28 -47 -42 -1 -5 -3 -7 -5 -5 -9 5 -45 -36 -39 -46 3 -5 2 -7 -4 -4 -10 6 -148 -130 -148 -148 -1 -5 -6 -9 -11 -8 -13 2 -190 -177 -186 -188 1 -5 -4 -9 -11 -9 -19 0 -49 -35 -40 -45 5 -4 3 -5 -3 -2 -11 6 -52 -29 -53 -45 -1 -5 -3 -7 -5 -5 -9 5 -45 -36 -39 -46 3 -5 2 -7 -4 -4 -10 6 -58 -37 -58 -51 0 -4 -3 -6 -6 -5 -8 3 -38 -29 -38 -41 0 -5 -10 -14 -23 -21 -13 -6 -22 -17 -20 -24 1 -6 -10 -16 -24 -21 -14 -6 -28 -19 -31 -30 -3 -11 -9 -18 -13 -15 -8 5 -36 -22 -42 -40 -2 -5 -6 -9 -9 -8 -8 3 -45 -37 -41 -44 2 -3 -7 -11 -20 -17 -13 -6 -23 -17 -23 -24 0 -7 -11 -18 -25 -25 -14 -7 -25 -18 -25 -25 0 -7 -4 -12 -8 -11 -13 0 -147 -134 -147 -148 0 -7 -6 -13 -13 -13 -8 0 -22 -10 -33 -22 -10 -12 -13 -18 -5 -13 10 5 12 4 7 -3 -4 -7 -12 -12 -18 -12 -18 0 -248 -233 -241 -243 3 -6 2 -7 -4 -4 -13 8 -156 -137 -146 -148 4 -4 3 -5 -3 -2 -6 4 -22 -5 -35 -20 -13 -14 -17 -22 -9 -18 13 8 13 7 1 -8 -8 -10 -16 -15 -19 -12 -8 8 -91 -78 -85 -89 3 -5 2 -6 -4 -3 -10 7 -52 -31 -52 -47 0 -5 -10 -14 -22 -20 -12 -6 -21 -15 -20 -20 1 -4 -11 -17 -28 -27 -17 -10 -31 -21 -31 -24 0 -4 6 -3 13 1 8 5 8 3 -2 -9 -7 -9 -17 -15 -21 -12 -10 6 -42 -30 -33 -38 3 -4 0 -7 -9 -7 -19 0 -50 -34 -41 -45 5 -4 3 -5 -3 -2 -13 7 -58 -36 -48 -46 4 -4 -5 -11 -19 -16 -14 -5 -28 -15 -33 -22 -5 -8 -3 -10 7 -4 11 6 11 5 2 -5 -6 -7 -22 -18 -35 -24 -12 -7 -22 -18 -21 -24 2 -7 -3 -12 -10 -12 -19 0 -49 -35 -40 -45 5 -4 3 -5 -3 -2 -11 6 -112 -89 -106 -100 2 -3 -7 -11 -20 -17 -13 -6 -23 -18 -23 -26 -1 -8 -6 -14 -11 -13 -11 2 -201 -184 -196 -192 1 -3 -1 -5 -5 -5 -16 -1 -202 -194 -196 -203 3 -6 2 -7 -4 -4 -6 4 -21 -5 -34 -20 -13 -14 -17 -23 -9 -18 8 5 12 5 8 0 -4 -4 -18 -13 -30 -19 -13 -7 -23 -17 -23 -24 0 -7 -3 -11 -7 -9 -12 4 -58 -46 -51 -56 3 -6 2 -7 -4 -4 -12 8 -56 -36 -46 -46 3 -4 0 -7 -9 -7 -8 0 -23 -10 -34 -22 -10 -12 -13 -18 -5 -13 10 5 12 4 7 -3 -4 -7 -13 -12 -20 -12 -7 0 -21 -10 -32 -22 -10 -12 -13 -18 -5 -13 10 5 12 4 7 -3 -4 -7 -13 -12 -20 -12 -18 0 -98 -85 -89 -95 5 -4 3 -5 -3 -2 -6 4 -22 -5 -35 -20 -13 -14 -17 -23 -9 -18 8 5 12 5 8 0 -4 -4 -18 -13 -30 -20 -13 -6 -22 -17 -20 -24 1 -6 -8 -15 -20 -20 -27 -11 -94 -81 -90 -94 1 -5 -1 -6 -6 -3 -5 3 -31 -18 -58 -46 -27 -28 -42 -47 -34 -43 13 8 13 6 1 -8 -7 -9 -17 -15 -21 -12 -10 6 -42 -30 -33 -38 3 -4 0 -7 -8 -7 -20 0 -351 -334 -342 -345 5 -4 3 -5 -3 -2 -11 6 -61 -39 -56 -51 1 -4 -2 -7 -6 -7 -9 0 -43 -31 -42 -40 0 -3 -2 -4 -4 -2 -9 5 -45 -36 -39 -46 3 -5 2 -7 -4 -4 -11 7 -56 -36 -48 -46 3 -4 2 -5 -2 -2 -9 7 -53 -36 -47 -46 3 -5 -6 -13 -20 -19 -14 -5 -26 -16 -26 -24 0 -8 -12 -21 -27 -29 -16 -7 -27 -19 -25 -25 1 -7 -6 -15 -15 -19 -28 -10 -53 -35 -46 -46 3 -5 1 -7 -4 -4 -10 7 -40 -20 -43 -38 -1 -5 -6 -9 -10 -8 -9 3 -39 -28 -39 -41 0 -5 -10 -14 -23 -20 -13 -6 -23 -17 -23 -24 0 -7 -11 -18 -25 -25 -14 -7 -25 -18 -25 -25 0 -7 -3 -11 -7 -9 -12 4 -58 -46 -51 -56 3 -6 1 -7 -4 -4 -10 7 -42 -21 -41 -36 0 -5 -4 -12 -8 -15 -4 -4 -4 0 1 8 4 8 -3 4 -16 -10 -13 -13 -24 -28 -24 -33 0 -4 -11 -14 -25 -21 -14 -7 -24 -19 -22 -27 2 -8 0 -10 -4 -6 -10 10 -215 -194 -207 -206 3 -6 1 -7 -4 -4 -6 4 -16 0 -23 -8 -7 -8 -19 -15 -26 -15 -23 0 -19 -158 3 -177 11 -9 12 -12 3 -7 -8 4 -4 -5 9 -19 14 -15 29 -27 36 -27 6 0 33 -22 60 -50 27 -27 46 -50 41 -50 -4 0 17 -25 46 -55 29 -30 56 -55 60 -55 14 0 108 -94 108 -107 0 -8 4 -12 9 -9 5 3 14 -1 21 -9 7 -8 9 -15 5 -15 -5 0 39 -47 97 -105 59 -58 111 -105 117 -105 6 0 11 -6 11 -14 0 -11 123 -136 134 -136 7 0 66 -61 66 -69 0 -9 114 -121 124 -121 14 0 67 -54 77 -78 12 -30 47 -42 124 -42 l65 0 412 411 c227 226 412 415 411 420 -2 5 2 9 8 9 14 0 1849 1835 1849 1849 0 6 5 11 11 11 16 0 459 442 459 457 0 7 3 12 8 10 12 -4 1087 1074 1084 1086 -2 7 0 9 3 5 8 -8 745 726 745 742 0 6 5 10 12 10 6 0 224 213 484 474 387 388 477 473 494 469 11 -3 19 -11 17 -17 -2 -6 9 -16 25 -23 15 -7 28 -18 28 -26 0 -8 11 -19 25 -25 14 -6 25 -18 25 -25 0 -8 11 -19 25 -25 14 -6 25 -18 25 -25 0 -8 11 -20 25 -27 14 -7 25 -19 25 -25 0 -7 11 -17 25 -23 14 -6 25 -18 25 -25 0 -8 11 -19 25 -25 14 -6 25 -18 25 -27 0 -8 4 -15 9 -15 13 0 91 -76 91 -89 0 -6 4 -11 9 -11 12 0 241 -226 241 -238 0 -5 11 -15 25 -22 14 -7 25 -19 25 -27 0 -7 4 -13 9 -13 11 0 141 -127 141 -138 0 -5 11 -15 25 -22 14 -7 25 -19 25 -27 0 -7 4 -13 10 -13 13 0 195 -183 192 -192 -1 -5 2 -8 7 -8 13 0 161 -148 161 -160 0 -6 5 -10 11 -10 13 0 74 -62 71 -72 -1 -5 2 -8 6 -8 17 0 103 -90 97 -100 -3 -5 0 -10 9 -10 17 0 96 -73 96 -89 0 -6 5 -11 10 -11 14 0 190 -176 190 -190 0 -5 4 -10 10 -10 14 0 90 -75 90 -89 0 -6 5 -11 10 -11 14 0 90 -72 90 -86 0 -6 11 -16 25 -22 14 -6 25 -18 25 -25 0 -8 11 -20 25 -27 14 -7 25 -19 25 -27 0 -7 4 -13 9 -13 12 0 141 -126 141 -138 0 -5 11 -15 25 -22 14 -7 25 -19 25 -27 0 -7 4 -13 10 -13 12 0 96 -80 93 -90 -1 -4 9 -13 22 -20 14 -7 25 -19 25 -25 0 -6 11 -18 25 -25 14 -7 25 -19 25 -25 0 -6 11 -18 25 -25 14 -7 25 -18 25 -25 0 -6 14 -19 30 -29 17 -9 28 -22 25 -27 -4 -5 -2 -9 3 -9 12 0 98 -83 95 -91 -1 -3 9 -12 22 -19 14 -7 25 -19 25 -27 0 -7 5 -13 10 -13 13 0 240 -227 240 -240 0 -6 5 -10 10 -10 12 0 550 -537 550 -549 0 -4 11 -13 25 -19 14 -6 25 -18 25 -25 0 -8 12 -19 26 -26 17 -7 24 -17 20 -26 -3 -9 0 -15 9 -15 15 0 145 -124 145 -138 0 -5 11 -14 25 -20 14 -6 25 -18 25 -27 0 -8 4 -15 9 -15 13 0 91 -76 91 -89 0 -6 5 -11 10 -11 14 0 140 -127 140 -140 0 -6 11 -16 25 -22 14 -6 25 -17 25 -24 0 -7 9 -18 21 -25 28 -15 79 -64 79 -76 0 -5 11 -16 25 -23 14 -7 25 -19 25 -27 0 -7 4 -13 8 -13 12 0 92 -77 92 -88 0 -5 11 -15 25 -22 14 -7 25 -18 25 -25 0 -6 14 -19 30 -29 17 -9 28 -21 26 -25 -3 -4 8 -15 25 -25 16 -9 27 -21 25 -25 -3 -4 6 -14 19 -21 14 -7 25 -19 25 -27 0 -7 4 -13 9 -13 5 0 52 -43 105 -95 53 -52 93 -95 89 -95 -5 0 5 -9 20 -19 16 -10 28 -22 27 -26 -1 -4 10 -15 25 -25 14 -9 33 -27 41 -39 8 -11 22 -21 30 -21 8 0 14 -5 14 -12 0 -7 23 -33 50 -59 28 -26 50 -52 50 -58 0 -6 4 -11 10 -11 13 0 340 -326 340 -339 0 -6 4 -11 9 -11 12 0 91 -76 91 -88 0 -5 11 -14 25 -20 14 -6 25 -18 25 -27 0 -8 5 -15 10 -15 12 0 140 -126 140 -138 0 -5 11 -14 25 -20 14 -6 25 -18 25 -25 0 -8 11 -19 25 -25 14 -6 25 -18 25 -25 0 -8 11 -19 25 -25 14 -6 25 -18 25 -25 0 -8 11 -19 25 -25 14 -6 25 -18 25 -25 0 -8 11 -20 25 -27 14 -7 25 -22 25 -32 0 -10 7 -18 15 -18 8 0 15 -4 15 -10 0 -5 23 -10 50 -10 28 0 50 4 50 9 0 5 11 12 25 15 14 4 30 17 35 29 4 12 247 260 539 551 l530 529 -6 63 -6 62 -2983 2983 c-1641 1641 -2988 2985 -2993 2987 -5 2 311 323 702 714 392 392 711 715 709 720 -1 4 3 8 10 8 14 0 1204 1192 1200 1203 -1 4 3 7 9 7 16 0 1279 1265 1280 1281 0 8 4 4 9 -9 5 -12 16 -25 23 -28 8 -2 1122 -1113 2478 -2469 l2464 -2463 59 8 c33 5 63 7 66 5 4 -2 239 229 523 513 l517 517 0 120 0 120 -98 97 c-53 53 -124 126 -157 162 -33 36 -65 66 -72 66 -6 0 -14 9 -18 19 -3 11 -15 23 -26 26 -10 4 -19 10 -19 14 0 12 -76 91 -87 91 -7 0 -14 8 -18 18 -3 11 -17 24 -30 30 -14 6 -25 18 -25 26 0 8 -9 17 -19 21 -11 3 -23 15 -26 25 -3 10 -15 22 -26 25 -10 4 -19 13 -19 20 0 8 -13 21 -30 30 -16 9 -30 20 -30 25 0 9 -23 32 -161 162 -21 20 -39 40 -39 45 0 4 -19 24 -41 43 -22 19 -65 60 -95 90 -178 182 -245 248 -277 275 -20 17 -37 34 -37 39 0 12 -129 136 -141 136 -5 0 -9 5 -9 12 0 13 -77 88 -91 88 -5 0 -9 4 -9 10 0 13 -126 140 -139 140 -6 0 -11 7 -11 15 0 9 -11 21 -25 27 -14 6 -25 15 -25 20 0 9 -118 128 -127 128 -5 0 -73 71 -73 77 0 3 -141 142 -243 240 -4 5 -37 37 -71 73 -35 36 -70 70 -77 77 -8 7 -19 18 -26 25 -7 7 -18 18 -25 24 -7 6 -30 29 -50 50 -21 21 -43 45 -50 52 -7 7 -39 39 -71 72 -32 33 -66 64 -77 70 -11 6 -20 15 -20 21 0 13 -127 139 -141 139 -5 0 -9 7 -9 15 0 9 -11 20 -25 25 -14 5 -25 14 -25 20 0 14 -60 74 -83 83 -9 3 -17 11 -17 17 0 13 -111 125 -133 133 -9 3 -17 13 -17 20 0 8 -11 19 -25 25 -14 6 -25 16 -25 22 0 6 -28 37 -61 68 -34 31 -71 67 -83 80 -74 82 -427 432 -436 432 -6 0 -16 11 -22 25 -6 13 -19 27 -30 30 -10 4 -18 11 -18 17 0 14 -75 88 -89 88 -6 0 -11 4 -11 10 0 13 -125 140 -139 140 -6 0 -11 4 -11 10 0 11 -129 140 -140 140 -4 0 -12 11 -18 25 -6 14 -18 25 -26 25 -9 0 -21 10 -27 22 -13 24 -90 100 -126 125 -13 8 -23 20 -23 25 0 11 -256 265 -281 279 -11 5 -19 15 -19 22 0 13 -126 137 -140 137 -6 0 -10 5 -10 10 0 14 -126 140 -139 140 -6 0 -11 5 -11 10 0 14 -111 124 -132 133 -10 3 -18 12 -18 18 0 13 -118 129 -131 129 -5 0 -13 9 -19 20 -15 29 -776 790 -790 790 -5 0 -10 5 -10 11 0 14 -126 139 -140 139 -6 0 -10 4 -10 10 0 13 -1186 1200 -1199 1200 -6 0 -11 5 -11 12 0 6 -30 39 -67 74 -38 35 -71 67 -75 71 -68 75 -949 953 -957 953 -6 0 -11 5 -11 10 0 6 -558 568 -1240 1250 l-1239 1240 -63 0 -63 0 -85 -85z m182 -2335 c12 -16 27 -30 34 -30 6 0 14 -9 17 -20 3 -11 17 -24 31 -30 14 -5 26 -13 26 -18 0 -13 1075 -1092 1087 -1092 6 0 13 -9 16 -21 3 -11 14 -23 25 -26 11 -3 22 -14 25 -25 3 -11 15 -22 26 -25 12 -3 21 -9 21 -14 0 -11 2471 -2485 2490 -2492 13 -5 13 -6 -1 -6 -19 -1 -52 -35 -43 -44 4 -4 -2 -10 -12 -13 -28 -10 -104 -86 -97 -97 3 -6 2 -7 -4 -4 -6 4 -21 -5 -34 -20 -13 -14 -17 -23 -9 -18 8 5 12 5 8 0 -4 -4 -18 -13 -30 -20 -13 -6 -22 -17 -20 -24 1 -6 -6 -14 -15 -18 -28 -10 -53 -35 -46 -46 3 -5 2 -7 -3 -4 -12 7 -139 -118 -139 -136 0 -7 -5 -12 -11 -12 -14 0 -250 -236 -247 -247 2 -4 -3 -8 -10 -8 -16 0 -99 -84 -92 -93 3 -4 2 -5 -2 -2 -10 8 -53 -37 -46 -48 3 -6 2 -7 -4 -4 -6 4 -21 -5 -33 -18 -13 -14 -19 -25 -14 -25 5 0 -6 -9 -24 -20 -17 -11 -31 -23 -30 -27 2 -5 0 -8 -3 -8 -15 0 -48 -39 -42 -49 3 -6 2 -8 -2 -3 -10 9 -56 -33 -49 -44 3 -5 -1 -9 -9 -9 -14 0 -43 -27 -49 -45 -2 -5 -6 -9 -9 -8 -4 1 -15 -7 -25 -19 -13 -14 -14 -19 -4 -13 12 6 12 5 3 -5 -6 -7 -22 -18 -35 -24 -12 -7 -22 -18 -21 -24 2 -7 -3 -12 -10 -12 -19 0 -49 -35 -40 -45 5 -4 3 -5 -3 -2 -11 6 -112 -89 -106 -100 2 -3 -7 -11 -20 -17 -13 -6 -23 -18 -23 -26 -1 -8 -6 -14 -12 -13 -11 2 -188 -174 -188 -188 0 -5 -3 -8 -6 -6 -12 4 -308 -297 -302 -308 4 -5 2 -7 -2 -2 -11 10 -106 -83 -98 -96 3 -6 2 -7 -4 -4 -6 4 -21 -5 -34 -20 -13 -14 -18 -23 -10 -18 9 5 12 4 7 -3 -4 -7 -13 -12 -20 -12 -7 0 -21 -10 -32 -22 -10 -12 -13 -18 -5 -13 10 5 12 4 7 -3 -4 -7 -13 -12 -20 -12 -16 0 -48 -34 -41 -43 3 -4 2 -5 -2 -2 -10 8 -53 -37 -46 -48 3 -6 2 -7 -4 -4 -6 4 -21 -5 -34 -20 -13 -14 -17 -23 -9 -18 8 5 12 5 8 0 -4 -4 -18 -13 -30 -20 -13 -6 -22 -17 -20 -24 1 -6 -6 -14 -15 -18 -27 -9 -53 -34 -47 -44 3 -5 -1 -9 -9 -9 -19 0 -49 -34 -40 -45 5 -4 3 -5 -3 -2 -6 3 -33 -17 -60 -45 -27 -28 -42 -47 -34 -43 13 8 13 7 1 -8 -8 -10 -16 -15 -19 -12 -8 8 -42 -26 -36 -36 3 -5 -1 -9 -8 -9 -19 0 -100 -84 -91 -94 5 -4 3 -6 -3 -4 -15 4 -304 -284 -297 -296 3 -5 2 -6 -4 -3 -9 6 -47 -30 -48 -45 0 -5 -3 -7 -7 -5 -12 4 -148 -136 -148 -152 0 -8 -3 -11 -7 -8 -9 9 -44 -23 -37 -34 3 -5 -5 -13 -18 -18 -13 -5 -30 -17 -38 -27 -12 -14 -12 -16 -1 -9 10 5 12 4 7 -3 -4 -7 -13 -12 -20 -12 -18 0 -48 -35 -39 -45 5 -4 3 -5 -3 -2 -11 6 -42 -19 -43 -35 -1 -5 -4 -8 -8 -9 -13 -1 -42 -31 -40 -40 1 -5 -9 -15 -23 -22 -14 -7 -25 -18 -25 -25 0 -7 -11 -19 -25 -26 -14 -7 -24 -18 -22 -25 1 -6 -10 -16 -24 -21 -14 -6 -28 -19 -31 -30 -3 -11 -9 -18 -13 -15 -7 5 -47 -34 -42 -41 1 -2 0 -3 -2 -1 -7 4 -45 -35 -43 -44 1 -5 -9 -15 -23 -22 -14 -8 -24 -19 -22 -26 1 -6 -6 -14 -15 -18 -26 -8 -173 -154 -184 -180 -9 -25 -29 -31 -29 -10 0 6 -858 870 -1908 1920 l-1907 1907 1959 1960 c1078 1078 1963 1960 1968 1960 4 0 17 -13 30 -30z"/>
</g>
</svg>